Coordinates
version=1
nRows=8
nColumns=36
inDegrees=yes

Units are S.I. units (second, meters, Newtons, ...)
If the header above contains a line with 'inDegrees', this indicates whether rotational values are in degrees (yes) or radians (no).

endheader
time	pelvis_tilt	pelvis_list	pelvis_rotation	pelvis_tx	pelvis_ty	pelvis_tz	hip_flexion_r	hip_adduction_r	hip_rotation_r	knee_angle_r	knee_angle_r_beta	ankle_angle_r	subtalar_angle_r	mtp_angle_r	hip_flexion_l	hip_adduction_l	hip_rotation_l	knee_angle_l	knee_angle_l_beta	ankle_angle_l	subtalar_angle_l	mtp_angle_l	lumbar_extension	lumbar_bending	lumbar_rotation	arm_flex_r	arm_add_r	arm_rot_r	elbow_flex_r	pro_sup_r	arm_flex_l	arm_add_l	arm_rot_l	elbow_flex_l	pro_sup_l
      3.21666670	     15.12030168	      5.07950188	      6.14492561	      0.13325287	      0.95005408	     -0.08042483	     -9.05985540	     -7.19164752	     -1.34696761	     18.33354574	      0.31998074	     -0.64672586	    -20.55591831	     -7.49999987	    -12.50619273	      6.62914455	      6.46088019	      9.36753232	      0.16349428	      0.94979646	     -8.99030074	     -7.49999987	    -24.13728512	     -3.93203511	      0.20000852	     42.80430903	      8.59749948	     54.87668485	    135.36208505	    105.77671520	     59.56923884	     12.31005832	     76.37458461	    126.21833523	     85.08857663
      3.23333330	     14.94928166	      5.29302778	      6.29393349	      0.13199993	      0.94881462	     -0.08146890	     -7.22167240	     -7.53905931	     -0.79633707	     21.37184695	      0.37300910	     -1.24381864	    -22.14131070	     -7.49999987	    -11.97325880	      7.00483654	      6.84143192	      9.88866386	      0.17258974	      1.26592245	     -9.39469398	     -7.49999987	    -24.19282880	     -4.35262406	     -0.04079541	     43.46061789	      9.22511444	     57.56392297	    136.02192827	    107.50104847	     59.62750307	     12.48316333	     76.50545895	    126.68300249	     86.92256841
      3.25000000	     15.01013792	      5.51644965	      6.36249340	      0.13082668	      0.95013754	     -0.08354184	     -5.59684802	     -7.88097701	     -0.26259022	     24.42843309	      0.42635659	     -1.80214134	    -23.46765655	     -7.49999987	    -11.73934549	      7.34877956	      7.00819966	     10.33594881	      0.18039634	      1.58034912	     -9.33116367	     -7.49999987	    -24.45946673	     -4.86609459	     -0.25058905	     43.99830327	      9.69041256	     60.24681928	    137.30184756	    108.72431363	     59.70491149	     12.83651168	     76.82695301	    126.84047751	     87.71853166
      3.26666670	     15.09422748	      5.74165501	      6.46166864	      0.13078318	      0.95049894	     -0.08542989	     -4.08305790	     -8.18941968	      0.17623424	     27.38981935	      0.47804253	     -2.58766670	    -24.65719754	     -7.49999987	    -11.60805611	      7.69605215	      7.32609745	     10.71890793	      0.18708024	      1.68868079	     -9.56685521	     -7.49999987	    -24.52472541	     -5.43794207	     -0.90496414	     44.51421778	     10.89173007	     64.58170345	    138.44223500	    108.73321036	     59.54295533	     12.68523220	     77.13745120	    127.14500082	     86.69182632
      3.28333330	     15.28069059	      5.97690921	      6.56469164	      0.12751272	      0.95222352	     -0.08915367	     -2.72188980	     -8.53619551	      0.41845552	     30.26792896	      0.52827502	     -3.34153353	    -25.54636188	     -7.49999987	    -11.59458712	      8.05025272	      7.43490633	     11.11792547	      0.19404441	      1.93698224	     -9.50753226	     -7.49999987	    -25.18301146	     -5.71685703	     -1.21928308	     44.66834175	     10.66271650	     65.13360007	    139.87213470	    109.00314486	     59.90274047	     12.93050031	     77.35168418	    127.06833301	     83.98823844
      3.30000000	     15.59968441	      6.15491218	      6.74824000	      0.12853780	      0.95333048	     -0.08981058	     -1.64740380	     -8.74238493	      0.71729932	     32.98938687	      0.57577342	     -4.16301831	    -26.28914407	     -7.49999987	    -11.80885142	      8.29141847	      7.83153631	     11.48312016	      0.20041826	      2.05305507	     -9.60795903	     -7.49999987	    -25.94317934	     -6.00252321	     -1.48222418	     44.90860217	     10.41664485	     64.80012791	    139.78593993	    109.18019340	     60.23829177	     13.13441258	     77.41749231	    126.92528251	     85.87228981
      3.31666670	     15.91551725	      6.30049888	      6.87550498	      0.12900444	      0.95191135	     -0.09116943	     -0.71848208	     -8.90676861	      0.86582103	     35.51986517	      0.61993860	     -4.91370674	    -26.83144440	     -7.49999987	    -12.12913661	      8.47294840	      7.97637285	     11.68137342	      0.20387843	      2.23705582	     -9.21763304	     -7.49999987	    -26.40722381	     -6.30714749	     -1.84275433	     45.12160744	     10.78144105	     65.99064455	    139.55658496	    108.70243750	     60.54757906	     13.13538852	     77.88074835	    127.09547858	     84.90773952
      3.33333330	     16.42849183	      6.39123411	      6.98013757	      0.13314069	      0.94834866	     -0.09249629	     -0.21503550	     -8.95246313	      1.02082548	     37.89302426	      0.66135804	     -5.29032232	    -26.99288766	     -7.49999987	    -12.70505880	      8.54118713	      8.17739673	     11.94224343	      0.20843147	      2.50746343	     -9.00581570	     -7.49999987	    -26.69120523	     -6.66883087	     -2.09574950	     45.16140005	     11.30851058	     66.82370569	    138.92744778	    108.80642693	     60.64677119	     13.16123563	     77.65939821	    127.06741464	     84.85581700
